<svg xmlns="http://www.w3.org/2000/svg" width="42" height="42" viewBox="0 0 42 42">
    <g fill="none" fill-rule="evenodd">
        <circle cx="21" cy="21" r="21" fill="#FF6D4A"/>
        <path fill="#FFF" d="M20.731 13.997c.775 0 1.551.023 2.302.023.194 0 .436 0 .436.251 0 .728-1.236.728-1.769.797.8.522 1.067 1.547 1.067 2.435 0 2.799-2.351 3.163-2.351 3.983 0 .751 3.053 1.866 3.053 4.438 0 2.867-2.835 4.074-5.501 4.074-2.302 0-4.968-.933-4.968-3.46 0-2.685 3.15-3.437 5.477-3.437-.291-.751-.557.046-.557-1.501-2.327 0-3.975-1.275-3.975-3.528 0-1.844 1.26-3.186 3.078-3.734 1.042-.318 2.617-.341 3.708-.341zm-2.084 6.078c1.163 0 1.551-1.002 1.551-1.934 0-1.185-.752-3.119-2.278-3.119-1.139 0-1.551 1.023-1.551 1.934 0 1.185.751 3.119 2.278 3.119zm-.34 8.147c1.333 0 3.224-.773 3.224-2.23 0-1.434-1.721-2.048-3.006-2.048-1.405 0-3.223.614-3.223 2.185 0 1.457 1.697 2.093 3.005 2.093zm11.269-10.105v2.276h-1.623v-2.276h-2.424v-1.502h2.424v-2.277h1.623v2.277H32v1.502h-2.424z"/>
    </g>
</svg>
