<svg xmlns="http://www.w3.org/2000/svg" width="17" height="17" viewBox="0 0 17 17">
    <path fill="#D0D7DD" fill-rule="evenodd" d="M8.498 16.999c-4.683 0-8.494-3.814-8.494-8.502 0-4.689 3.811-8.503 8.494-8.503 4.684 0 8.495 3.814 8.495 8.503 0 4.688-3.811 8.502-8.495 8.502zm0-15.513c-3.861 0-7.003 3.145-7.003 7.011 0 3.865 3.142 7.01 7.003 7.01 3.862 0 7.004-3.145 7.004-7.01 0-3.866-3.142-7.011-7.004-7.011zm2.976 8.126H8.459c-.056 0-.106-.02-.158-.032-.052.012-.102.032-.158.032a.746.746 0 0 1-.745-.746V4.968a.746.746 0 0 1 1.491 0V8.12h2.585a.746.746 0 0 1 0 1.492z"/>
</svg>
