<svg xmlns="http://www.w3.org/2000/svg" width="42" height="42" viewBox="0 0 42 42">
    <g fill="none" fill-rule="evenodd">
        <circle cx="21" cy="21" r="21" fill="#59E6FF"/>
        <path fill="#FFF" d="M29.523 17.074a6.666 6.666 0 0 1-1.884.501 3.223 3.223 0 0 0 1.442-1.762 6.669 6.669 0 0 1-2.083.772 3.318 3.318 0 0 0-2.394-1.006c-1.812 0-3.281 1.427-3.281 3.188 0 .251.029.494.085.727a9.396 9.396 0 0 1-6.762-3.333 3.12 3.12 0 0 0-.444 1.605c0 1.106.58 2.081 1.46 2.654a3.342 3.342 0 0 1-1.486-.399v.04c0 1.545 1.13 2.834 2.631 3.127a3.322 3.322 0 0 1-.864.111c-.211 0-.417-.019-.618-.055.418 1.265 1.629 2.188 3.065 2.213a6.698 6.698 0 0 1-4.074 1.365c-.265 0-.526-.014-.783-.043a9.499 9.499 0 0 0 5.029 1.432c6.034 0 9.333-4.861 9.333-9.073 0-.139-.003-.276-.009-.414a6.58 6.58 0 0 0 1.637-1.65z"/>
    </g>
</svg>
