<svg xmlns="http://www.w3.org/2000/svg" width="19" height="26" viewBox="0 0 19 26">
    <path fill="#FF6F4C" fill-rule="evenodd" d="M14.959 25.8H3.492C1.567 25.8 0 24.209 0 22.255V4.531C0 2.576 1.567.986 3.492.986h11.467c1.926 0 3.492 1.59 3.492 3.545v17.724c0 1.954-1.566 3.545-3.492 3.545zm1.587-21.269c0-.888-.712-1.611-1.587-1.611H3.492c-.875 0-1.587.723-1.587 1.611v17.724c0 .888.712 1.611 1.587 1.611h11.467c.875 0 1.587-.723 1.587-1.611V4.531zm-3.223 13.38H5.129c-.713 0-1.293-.57-1.293-1.271V6.481c0-.7.58-1.27 1.293-1.27h8.194c.713 0 1.292.57 1.292 1.27V16.64c0 .701-.579 1.271-1.292 1.271zM12.71 7.144H5.741v8.833h6.969V7.144zM9.226 19.898c.746 0 1.352.614 1.352 1.373 0 .758-.606 1.373-1.352 1.373a1.363 1.363 0 0 1-1.353-1.373c0-.759.606-1.373 1.353-1.373z"/>
</svg>
